# xmcd CD database file
#
# Track frame offsets:
#	150
#	33622
#	59019
#	77111
#	100938
#	117604
#	164366
#	209181
#	228167
#	250867
#	267508
#	325051
#
# Disc length: 4513 seconds
#
# Revision: 0
# Processed by: cddbd v1.4PL0 Copyright (c) Steve Scherf et al.
# Submitted via: CDex 1.51
#
DISCID=b3119f0c
DTITLE=renato sellani - per gino paoli
DYEAR=1900
DGENRE=Jazz
TTITLE0=la gatta
TTITLE1=una lunga storia d'amore
TTITLE2=come si fa
TTITLE3=il cielo in una stanza
TTITLE4=quattro amici al bar
TTITLE5=che cosa c'e'
TTITLE6=sapore di sale
TTITLE7=per una storia
TTITLE8=senza fine
TTITLE9=ti lascio una canzone 
TTITLE10=sassi
TTITLE11=non si vive in silenzio
EXTD=
EXTT0=
EXTT1=
EXTT2=
EXTT3=
EXTT4=
EXTT5=
EXTT6=
EXTT7=
EXTT8=
EXTT9=
EXTT10=
EXTT11=
PLAYORDER=
